<svg width="131" height="32" viewBox="0 0 131 32" fill="none" xmlns="http://www.w3.org/2000/svg">
<path d="M0 4.74074C0 2.1225 2.1225 0 4.74074 0H27.2593C29.8775 0 32 2.1225 32 4.74074V27.2593C32 29.8775 29.8775 32 27.2593 32H4.74074C2.1225 32 0 29.8775 0 27.2593V4.74074Z" fill="#3B49FF"/>
<path d="M27.8518 13.6814C27.8518 12.249 27.3705 11.0887 26.3476 10.0116H26.3438L22.2786 5.92603H14.9455L22.1658 13.1674C22.2937 13.2959 22.3726 13.4735 22.3726 13.6663C22.3726 13.8591 22.2937 14.0367 22.1658 14.1652L14.577 21.7921V15.3708H8.19151L15.0884 8.42045L13.8249 7.15056L3.85181 17.1736H12.7456V26.0553H12.8433V26.0402C12.8584 26.0402 12.8734 26.0061 12.9712 25.9268C13.005 25.9079 13.0201 25.8928 13.0201 25.8928L22.4967 16.3686L22.7224 16.1418C23.1548 15.7223 23.5572 15.3217 23.9408 14.7586C24.1815 14.4033 24.2943 13.9346 24.2454 13.4698C24.1965 12.9369 23.9107 12.4078 23.3654 11.8106C23.1699 11.5838 22.948 11.376 22.7713 11.2134L19.2664 7.73637H21.5077L23.1887 9.41066C23.3654 9.5694 23.5572 9.76215 23.749 9.93978C24.1815 10.3404 24.6139 10.7599 24.9336 11.1454C25.6669 12.0298 25.9414 12.6723 25.9565 13.5907C25.9715 14.2635 25.7948 14.8946 25.4751 15.4237C24.9787 16.1985 24.3545 16.807 23.7302 17.4042C23.5384 17.5969 23.3466 17.7745 23.1548 17.9673L20.7218 20.4126L19.8418 21.297L19.6349 21.5048L18.4993 22.6462L15.0734 26.0742H17.6193L22.854 20.8434L24.6328 19.0558C24.7456 18.9575 24.8396 18.863 24.9524 18.7496C26.058 17.6536 27.1937 16.5273 27.6262 15.1441C27.7728 14.6641 27.8518 14.1803 27.8518 13.6814Z" fill="white"/>
<path d="M48.9057 25.1723V21.3076H40.8889V18.4477C41.5635 17.3828 42.1948 16.2577 42.7828 15.0725C43.3709 13.8873 43.9157 12.6334 44.4173 11.3108C44.9362 9.98823 45.3686 8.6141 45.7145 7.18844H49.4246C49.2343 8.01292 48.9662 8.88034 48.6203 9.7907C48.2917 10.7011 47.9112 11.6028 47.4788 12.496C47.0464 13.3892 46.6053 14.2308 46.1556 15.021C45.7232 15.7939 45.3081 16.481 44.9103 17.0822C44.5125 17.6833 44.1752 18.1385 43.8984 18.4477H48.9057V14.1707C49.0787 13.8444 49.2516 13.4923 49.4246 13.1144C49.6148 12.7193 49.7964 12.3242 49.9694 11.9292C50.1424 11.5169 50.298 11.1133 50.4364 10.7182C50.5921 10.3232 50.7131 9.95387 50.7996 9.61034H52.4601V18.4477H54.7431V21.3076H52.4601V25.1723H48.9057Z" fill="#050825"/>
<path d="M64.905 25.4815C64.0229 25.4815 63.21 25.3098 62.4662 24.9662C61.7398 24.6055 61.1517 24.0644 60.702 23.343H60.5204L60.235 25.1723H57.2774V6.54432H60.8836V13.1144H61.0393C61.316 12.7193 61.6533 12.3844 62.0511 12.1095C62.4489 11.8347 62.8986 11.6372 63.4002 11.5169C63.9018 11.3795 64.4466 11.3108 65.0347 11.3108C66.1071 11.3108 67.0411 11.5599 67.8367 12.058C68.6496 12.5561 69.2809 13.3291 69.7306 14.3768C70.1803 15.4074 70.4052 16.7386 70.4052 18.3704C70.4052 20.0022 70.1803 21.342 69.7306 22.3897C69.2982 23.4375 68.6669 24.219 67.8367 24.7343C67.0238 25.2325 66.0465 25.4815 64.905 25.4815ZM63.7894 22.5443C64.5158 22.5443 65.0866 22.4069 65.5017 22.1321C65.9341 21.8401 66.2454 21.4107 66.4357 20.8438C66.626 20.277 66.7211 19.5642 66.7211 18.7053V18.1128C66.7211 17.2539 66.626 16.5411 66.4357 15.9743C66.2454 15.3903 65.9341 14.9609 65.5017 14.686C65.0866 14.394 64.5158 14.248 63.7894 14.248C63.2705 14.248 62.8294 14.3425 62.4662 14.5314C62.103 14.7032 61.8003 14.9609 61.5582 15.3044C61.3333 15.6307 61.1604 16.043 61.0393 16.5411C60.9182 17.0392 60.8577 17.5889 60.8577 18.1901V18.6538C60.8577 19.4611 60.9615 20.1568 61.169 20.7408C61.3766 21.3248 61.6965 21.7714 62.1289 22.0806C62.5614 22.3897 63.1148 22.5443 63.7894 22.5443Z" fill="#050825"/>
<path d="M79.3403 25.4815C77.8529 25.4815 76.5902 25.2325 75.5525 24.7343C74.5147 24.219 73.7277 23.4375 73.1915 22.3897C72.6554 21.3248 72.3873 19.9936 72.3873 18.3962C72.3873 16.7644 72.6554 15.4332 73.1915 14.4026C73.7277 13.3548 74.5147 12.5819 75.5525 12.0838C76.5902 11.5685 77.8529 11.3108 79.3403 11.3108C80.8624 11.3108 82.1337 11.5685 83.1541 12.0838C84.1919 12.5819 84.9789 13.3548 85.5151 14.4026C86.0512 15.4332 86.3193 16.7644 86.3193 18.3962C86.3193 19.9936 86.0512 21.3248 85.5151 22.3897C84.9789 23.4375 84.1919 24.219 83.1541 24.7343C82.1337 25.2325 80.8624 25.4815 79.3403 25.4815ZM79.3403 22.6989C80.136 22.6989 80.7673 22.5529 81.2343 22.2609C81.7185 21.9689 82.0731 21.5223 82.298 20.9211C82.5228 20.32 82.6352 19.5814 82.6352 18.7053V18.087C82.6352 17.211 82.5228 16.4724 82.298 15.8712C82.0731 15.27 81.7185 14.8234 81.2343 14.5314C80.7673 14.2223 80.136 14.0677 79.3403 14.0677C78.562 14.0677 77.9307 14.2223 77.4464 14.5314C76.9794 14.8234 76.6335 15.27 76.4086 15.8712C76.1838 16.4724 76.0714 17.211 76.0714 18.087V18.7053C76.0714 19.5814 76.1838 20.32 76.4086 20.9211C76.6335 21.5223 76.9794 21.9689 77.4464 22.2609C77.9307 22.5529 78.562 22.6989 79.3403 22.6989Z" fill="#050825"/>
<path d="M95.2514 25.4815C93.764 25.4815 92.5014 25.2325 91.4636 24.7343C90.4258 24.219 89.6388 23.4375 89.1027 22.3897C88.5665 21.3248 88.2984 19.9936 88.2984 18.3962C88.2984 16.7644 88.5665 15.4332 89.1027 14.4026C89.6388 13.3548 90.4258 12.5819 91.4636 12.0838C92.5014 11.5685 93.764 11.3108 95.2514 11.3108C96.7735 11.3108 98.0448 11.5685 99.0653 12.0838C100.103 12.5819 100.89 13.3548 101.426 14.4026C101.962 15.4332 102.23 16.7644 102.23 18.3962C102.23 19.9936 101.962 21.3248 101.426 22.3897C100.89 23.4375 100.103 24.219 99.0653 24.7343C98.0448 25.2325 96.7735 25.4815 95.2514 25.4815ZM95.2514 22.6989C96.0471 22.6989 96.6784 22.5529 97.1454 22.2609C97.6297 21.9689 97.9842 21.5223 98.2091 20.9211C98.4339 20.32 98.5464 19.5814 98.5464 18.7053V18.087C98.5464 17.211 98.4339 16.4724 98.2091 15.8712C97.9842 15.27 97.6297 14.8234 97.1454 14.5314C96.6784 14.2223 96.0471 14.0677 95.2514 14.0677C94.4731 14.0677 93.8418 14.2223 93.3575 14.5314C92.8905 14.8234 92.5446 15.27 92.3198 15.8712C92.0949 16.4724 91.9825 17.211 91.9825 18.087V18.7053C91.9825 19.5814 92.0949 20.32 92.3198 20.9211C92.5446 21.5223 92.8905 21.9689 93.3575 22.2609C93.8418 22.5529 94.4731 22.6989 95.2514 22.6989Z" fill="#050825"/>
<path d="M104.884 25.1723V6.51855H108.49V17.2625L113.264 11.62H117.493L112.823 16.9276L117.726 25.1723H113.601L110.462 19.4525L108.49 21.3591V25.1723H104.884Z" fill="#050825"/>
<path d="M124.421 25.4815C123.47 25.4815 122.614 25.3785 121.853 25.1723C121.092 24.9662 120.443 24.6828 119.907 24.3221C119.371 23.9442 118.956 23.4976 118.661 22.9823C118.385 22.467 118.246 21.883 118.246 21.2303C118.246 21.1616 118.246 21.0929 118.246 21.0242C118.246 20.9555 118.255 20.904 118.272 20.8696H121.749C121.749 20.904 121.749 20.9383 121.749 20.9727C121.749 21.007 121.749 21.0414 121.749 21.0757C121.766 21.5051 121.905 21.8573 122.164 22.1321C122.423 22.3897 122.761 22.5787 123.176 22.6989C123.608 22.8191 124.058 22.8793 124.525 22.8793C124.94 22.8793 125.338 22.8449 125.718 22.7762C126.116 22.6903 126.445 22.5443 126.704 22.3382C126.981 22.1321 127.119 21.8658 127.119 21.5395C127.119 21.1273 126.946 20.8095 126.6 20.5862C126.272 20.3629 125.831 20.1825 125.277 20.0451C124.741 19.9077 124.153 19.7531 123.513 19.5814C122.925 19.4439 122.337 19.2894 121.749 19.1176C121.161 18.9286 120.625 18.6882 120.14 18.3962C119.673 18.1042 119.293 17.7263 118.999 17.2625C118.705 16.7816 118.558 16.1804 118.558 15.459C118.558 14.7547 118.713 14.145 119.025 13.6297C119.336 13.0972 119.76 12.6592 120.296 12.3157C120.849 11.9721 121.489 11.7231 122.216 11.5685C122.96 11.3967 123.755 11.3108 124.603 11.3108C125.398 11.3108 126.142 11.3967 126.834 11.5685C127.526 11.7231 128.131 11.9635 128.65 12.2899C129.169 12.5991 129.575 12.9941 129.869 13.4751C130.163 13.9388 130.31 14.4627 130.31 15.0467C130.31 15.167 130.31 15.2786 130.31 15.3817C130.31 15.4847 130.302 15.5534 130.285 15.5878H126.834V15.3817C126.834 15.0725 126.739 14.8149 126.549 14.6087C126.358 14.3854 126.082 14.2137 125.718 14.0934C125.372 13.9732 124.949 13.9131 124.447 13.9131C124.101 13.9131 123.781 13.9388 123.487 13.9904C123.21 14.0419 122.968 14.1192 122.761 14.2223C122.553 14.3253 122.389 14.4541 122.268 14.6087C122.164 14.7461 122.112 14.9179 122.112 15.124C122.112 15.416 122.233 15.6565 122.475 15.8454C122.735 16.0172 123.072 16.1632 123.487 16.2834C123.902 16.4037 124.361 16.5325 124.862 16.6699C125.485 16.8417 126.133 17.0135 126.808 17.1852C127.5 17.3398 128.14 17.5545 128.728 17.8293C129.316 18.1042 129.792 18.4992 130.155 19.0145C130.518 19.5127 130.7 20.1911 130.7 21.05C130.7 21.8744 130.535 22.5701 130.207 23.1369C129.895 23.7037 129.454 24.1589 128.884 24.5025C128.313 24.846 127.647 25.095 126.886 25.2496C126.125 25.4042 125.303 25.4815 124.421 25.4815Z" fill="#050825"/>
</svg>
